<?xml version="1.0" encoding="UTF-8"?>
<svg xmlns="http://www.w3.org/2000/svg" width="40pt" height="40pt" viewBox="0 0 40 40" version="1.1">
    <g id="surface1">
        <path style=" stroke:none;fill-rule:evenodd;fill:rgb(0.784314%,18.823529%,22.745098%);fill-opacity:1;"
              d="M 40 14.320312 L 39.960938 14.320312 C 39.917969 13.710938 39.8125 13.105469 39.640625 12.519531 C 39.144531 11.324219 38.34375 10.273438 37.320312 9.480469 C 36.441406 8.679688 35.078125 8.078125 34.640625 8.601562 C 34.324219 8.855469 34.03125 9.136719 33.761719 9.441406 L 33.71875 9.441406 C 33.359375 9.921875 33.558594 10.078125 33.761719 10.238281 C 33.960938 10.398438 35.640625 11.199219 36.199219 12.800781 C 36.480469 13.480469 37.039062 15.039062 36.039062 16 C 35.8125 16.210938 35.558594 16.382812 35.28125 16.519531 L 34.761719 16.601562 C 33.679688 16.679688 32 15.800781 28.558594 12.679688 C 28.449219 12.550781 28.328125 12.429688 28.199219 12.320312 C 24.839844 9.121094 20.71875 8.640625 17.398438 8.921875 C 15.671875 9.089844 13.96875 9.453125 12.320312 10 C 9.761719 10.839844 8.601562 11.679688 9.601562 13.640625 C 10.257812 15.035156 11.007812 16.382812 11.839844 17.679688 C 12.359375 18.558594 13.039062 18.921875 13.761719 18.921875 C 15.800781 18.960938 18.199219 16.441406 18.480469 16.121094 C 16.679688 18.800781 15.039062 19.761719 13.679688 19.761719 C 12.59375 19.722656 11.597656 19.136719 11.039062 18.199219 C 10.367188 17.066406 9.765625 15.890625 9.238281 14.679688 C 1.121094 17.640625 2.679688 29.921875 2.921875 31.441406 L 2.921875 31.601562 L 7.238281 31.601562 C 8.320312 26.519531 12.238281 26.71875 12.921875 31.601562 L 16.199219 31.601562 C 19.078125 21.679688 25.320312 31.601562 25.320312 31.601562 L 29 31.601562 C 29 26.320312 28.441406 24.320312 31.160156 23.960938 C 35.761719 23.320312 37.921875 21.160156 39.320312 17.921875 L 39.441406 17.601562 L 39.558594 17.320312 C 39.566406 17.234375 39.59375 17.152344 39.640625 17.078125 C 39.910156 16.1875 40.03125 15.253906 40 14.320312 Z M 25.800781 18.761719 C 23.558594 18 24.359375 15.679688 24.359375 15.679688 L 25.921875 16.199219 C 25.582031 16.449219 25.398438 16.859375 25.441406 17.28125 C 25.480469 17.589844 25.640625 17.867188 25.890625 18.058594 C 26.136719 18.246094 26.453125 18.324219 26.761719 18.28125 C 27.066406 18.25 27.351562 18.097656 27.546875 17.855469 C 27.742188 17.617188 27.832031 17.308594 27.800781 17 L 27.800781 16.839844 L 29 17.238281 C 28.878906 17.960938 27.519531 19.320312 25.800781 18.761719 Z M 25.800781 18.761719 "/>
    </g>
</svg>
