<?xml version="1.0" encoding="UTF-8"?>
<svg xmlns="http://www.w3.org/2000/svg" width="40pt" height="40pt" viewBox="0 0 40 40" version="1.1">
    <g id="surface1">
        <path style=" stroke:none;fill-rule:nonzero;fill:rgb(32.54902%,50.980392%,63.137255%);fill-opacity:1;"
              d="M 15.28125 27.878906 C 15.28125 27.878906 13.878906 28.679688 16.238281 28.960938 C 18.601562 29.238281 20.558594 29.238281 23.71875 28.640625 C 24.347656 29.011719 25 29.332031 25.679688 29.601562 C 18.640625 32.640625 9.71875 29.441406 15.28125 27.878906 "/>
        <path style=" stroke:none;fill-rule:nonzero;fill:rgb(32.54902%,50.980392%,63.137255%);fill-opacity:1;"
              d="M 14.398438 23.921875 C 14.398438 23.921875 12.839844 25.078125 15.238281 25.320312 C 18.441406 25.710938 21.6875 25.5625 24.839844 24.878906 C 25.277344 25.261719 25.777344 25.558594 26.320312 25.761719 C 17.800781 28.28125 8.28125 25.960938 14.398438 23.921875 "/>
        <path style=" stroke:none;fill-rule:nonzero;fill:rgb(90.588235%,43.529412%,0%);fill-opacity:1;"
              d="M 21.679688 17.238281 C 23.398438 19.238281 21.199219 21.039062 21.199219 21.039062 C 21.199219 21.039062 25.640625 18.761719 23.601562 15.921875 C 21.558594 13.078125 20.28125 11.921875 28.121094 7.359375 C 28.121094 7.359375 15.800781 10.441406 21.679688 17.238281 "/>
        <path style=" stroke:none;fill-rule:nonzero;fill:rgb(32.54902%,50.980392%,63.137255%);fill-opacity:1;"
              d="M 31 30.800781 C 31 30.800781 32.039062 31.640625 29.878906 32.28125 C 25.800781 33.519531 12.921875 33.921875 9.359375 32.359375 C 8.078125 31.800781 10.480469 31 11.238281 30.839844 C 11.644531 30.746094 12.0625 30.707031 12.480469 30.71875 C 11.039062 29.679688 3.238281 32.679688 8.519531 33.558594 C 22.921875 35.878906 34.761719 32.480469 31 30.800781 "/>
        <path style=" stroke:none;fill-rule:nonzero;fill:rgb(32.54902%,50.980392%,63.137255%);fill-opacity:1;"
              d="M 15.921875 19.839844 C 15.921875 19.839844 9.359375 21.398438 13.601562 21.960938 C 15.398438 22.199219 18.960938 22.160156 22.28125 21.878906 C 25.601562 21.601562 27.71875 21.160156 27.71875 21.160156 C 27.148438 21.402344 26.597656 21.695312 26.078125 22.039062 C 19.398438 23.800781 6.558594 23 10.238281 21.199219 C 12 20.304688 13.945312 19.839844 15.921875 19.839844 "/>
        <path style=" stroke:none;fill-rule:nonzero;fill:rgb(32.54902%,50.980392%,63.137255%);fill-opacity:1;"
              d="M 27.679688 26.398438 C 34.441406 22.921875 31.320312 19.519531 29.160156 20 C 28.886719 20.027344 28.617188 20.09375 28.359375 20.199219 C 28.507812 19.992188 28.71875 19.835938 28.960938 19.761719 C 33.28125 18.238281 36.601562 24.238281 27.558594 26.601562 C 27.613281 26.542969 27.65625 26.472656 27.679688 26.398438 "/>
        <path style=" stroke:none;fill-rule:nonzero;fill:rgb(90.588235%,43.529412%,0%);fill-opacity:1;"
              d="M 23.601562 0 C 23.601562 0 27.359375 3.761719 20.039062 9.519531 C 14.199219 14.121094 18.71875 16.761719 20.039062 19.800781 C 16.640625 16.679688 14.121094 14 15.800781 11.441406 C 18.28125 7.761719 25.121094 5.960938 23.601562 0 "/>
        <path style=" stroke:none;fill-rule:nonzero;fill:rgb(32.54902%,50.980392%,63.137255%);fill-opacity:1;"
              d="M 16.601562 35.960938 C 23.078125 36.359375 33.078125 35.71875 33.28125 32.640625 C 33.28125 32.640625 32.839844 33.800781 27.921875 34.71875 C 22.484375 35.644531 16.941406 35.738281 11.480469 35 C 11.480469 35 12.320312 35.679688 16.601562 35.960938 "/>
    </g>
</svg>
