<?xml version="1.0" encoding="UTF-8"?>
<svg xmlns="http://www.w3.org/2000/svg" width="40pt" height="40pt" viewBox="0 0 40 40" version="1.1">
    <g id="surface1">
        <path style=" stroke:none;fill-rule:evenodd;fill:rgb(82.745098%,21.960784%,20%);fill-opacity:1;"
              d="M 32.519531 19.359375 C 32.519531 26.441406 26.921875 32.160156 20 32.160156 C 13.078125 32.160156 7.480469 26.441406 7.480469 19.359375 C 7.480469 12.28125 13.078125 6.558594 20 6.558594 C 26.921875 6.558594 32.519531 12.28125 32.519531 19.359375 "/>
        <path style=" stroke:none;fill-rule:nonzero;fill:rgb(93.72549%,23.921569%,22.745098%);fill-opacity:1;"
              d="M 8 22.519531 C 8 22.519531 7.078125 9.160156 19.398438 8.800781 L 18.519531 7.359375 L 11.839844 9.601562 L 9.960938 11.800781 L 8.28125 15 L 7.320312 18.71875 L 7.601562 21.199219 "/>
        <path style=" stroke:none;fill-rule:nonzero;fill:rgb(13.72549%,12.156863%,12.54902%);fill-opacity:1;"
              d="M 11.441406 10.640625 C 9.148438 12.976562 7.867188 16.125 7.878906 19.398438 C 7.867188 22.675781 9.148438 25.824219 11.441406 28.160156 C 13.671875 30.5 16.769531 31.816406 20 31.800781 C 23.230469 31.816406 26.328125 30.5 28.558594 28.160156 C 30.851562 25.824219 32.132812 22.675781 32.121094 19.398438 C 32.132812 16.125 30.851562 12.976562 28.558594 10.640625 C 26.328125 8.300781 23.230469 6.984375 20 7 C 16.769531 6.984375 13.671875 8.300781 11.441406 10.640625 Z M 10.878906 28.71875 C 8.449219 26.226562 7.085938 22.882812 7.078125 19.398438 C 7.085938 15.917969 8.449219 12.574219 10.878906 10.078125 C 13.265625 7.597656 16.558594 6.199219 20 6.199219 C 23.441406 6.199219 26.734375 7.597656 29.121094 10.078125 C 31.550781 12.574219 32.914062 15.917969 32.921875 19.398438 C 32.914062 22.882812 31.550781 26.226562 29.121094 28.71875 C 26.734375 31.199219 23.441406 32.601562 20 32.601562 C 16.558594 32.601562 13.265625 31.199219 10.878906 28.71875 "/>
        <path style=" stroke:none;fill-rule:evenodd;fill:rgb(94.117647%,83.921569%,71.764706%);fill-opacity:1;"
              d="M 25.28125 19.441406 L 23.359375 19.71875 L 20.800781 20 L 17.480469 20 L 16.238281 19.601562 L 15.160156 18.441406 L 14.320312 16 L 14.121094 15.480469 L 12.960938 15.078125 L 12.320312 14 L 11.839844 12.398438 L 12.359375 11.039062 L 13.601562 10.601562 L 14.601562 11.078125 L 15.078125 12.121094 L 15.640625 12.039062 L 15.839844 11.800781 L 15.640625 10.71875 L 15.640625 9.320312 L 15.921875 7.398438 L 15.921875 6.320312 L 16.761719 4.921875 L 18.320312 3.839844 L 20.960938 2.679688 L 23.921875 3.121094 L 26.480469 5 L 27.679688 6.878906 L 28.398438 8.28125 L 28.601562 11.71875 L 28.039062 14.640625 L 27 17.28125 L 26 18.679688 "/>
        <path style=" stroke:none;fill-rule:evenodd;fill:rgb(20%,31.372549%,38.039216%);fill-opacity:1;"
              d="M 23.640625 27.679688 L 16.839844 27.960938 L 16.839844 29.121094 L 17.398438 33.121094 L 17.121094 33.441406 L 12.359375 31.800781 L 12 31.238281 L 11.519531 25.839844 L 10.441406 22.601562 L 10.199219 21.839844 L 14 19.238281 L 15.199219 18.761719 L 16.238281 20.039062 L 17.160156 20.839844 L 18.199219 21.199219 L 18.679688 21.320312 L 19.28125 23.800781 L 19.679688 24.320312 L 20.800781 23.960938 L 20.039062 25.441406 L 24.160156 27.398438 L 23.640625 27.679688 "/>
        <path style=" stroke:none;fill-rule:evenodd;fill:rgb(42.745098%,41.960784%,42.745098%);fill-opacity:1;"
              d="M 12.359375 11.039062 L 13.601562 10.601562 L 14.601562 11.078125 L 15.078125 12.121094 L 15.640625 12.039062 L 15.800781 11.480469 L 15.480469 10.359375 L 15.800781 7.761719 L 15.558594 6.320312 L 16.398438 5.320312 L 18.28125 3.839844 L 17.71875 3.121094 L 15.121094 4.398438 L 14 5.28125 L 13.398438 6.601562 L 12.441406 7.878906 L 12.160156 9.398438 L 12.359375 11.039062 "/>
        <path style=" stroke:none;fill-rule:evenodd;fill:rgb(86.27451%,85.098039%,84.705882%);fill-opacity:1;"
              d="M 14.320312 6.558594 C 14.320312 6.558594 15 4.800781 17.878906 3.921875 C 20.761719 3.039062 18.039062 3.320312 18.039062 3.320312 L 14.921875 4.519531 L 13.71875 5.679688 L 13.199219 6.640625 L 14.320312 6.558594 "/>
        <path style=" stroke:none;fill-rule:evenodd;fill:rgb(86.27451%,85.098039%,84.705882%);fill-opacity:1;"
              d="M 12.878906 10.71875 C 12.878906 10.71875 11.878906 7.359375 15.679688 6.878906 L 15.558594 6.320312 L 12.921875 6.921875 L 12.160156 9.398438 L 12.359375 11.039062 L 12.878906 10.71875 "/>
        <path style=" stroke:none;fill-rule:evenodd;fill:rgb(96.862745%,89.411765%,80.392157%);fill-opacity:1;"
              d="M 14.398438 15.121094 L 15.039062 14.519531 C 15.214844 14.554688 15.34375 14.703125 15.359375 14.878906 C 15.398438 15.238281 15.558594 18.238281 17.601562 19.839844 C 17.761719 20 16.078125 19.601562 16.078125 19.601562 L 14.558594 17.238281 "/>
        <path style=" stroke:none;fill-rule:evenodd;fill:rgb(96.862745%,89.411765%,80.392157%);fill-opacity:1;"
              d="M 23.160156 14.238281 C 23.160156 14.238281 23.28125 12.800781 23.679688 12.878906 C 23.894531 12.960938 24.039062 13.167969 24.039062 13.398438 C 24.039062 13.398438 23.121094 14 23.160156 14.238281 "/>
        <path style=" stroke:none;fill-rule:nonzero;fill:rgb(96.862745%,89.411765%,80.392157%);fill-opacity:1;"
              d="M 27.121094 8.921875 C 26.695312 9.03125 26.371094 9.371094 26.28125 9.800781 C 26.199219 10.480469 27.121094 9.921875 27.28125 9.878906 "/>
        <path style=" stroke:none;fill-rule:nonzero;fill:rgb(96.862745%,89.411765%,80.392157%);fill-opacity:1;"
              d="M 21.359375 9 C 21.359375 9 20.320312 9.121094 20.320312 9.800781 C 20.320312 10.480469 21.519531 10.398438 21.839844 10.121094 "/>
        <path style=" stroke:none;fill-rule:evenodd;fill:rgb(96.862745%,89.411765%,80.392157%);fill-opacity:1;"
              d="M 14.878906 12.078125 C 14.878906 12.078125 13.078125 11 12.878906 12.039062 C 12.679688 13.078125 12.238281 13.839844 13.160156 14.960938 L 12.558594 14.761719 L 11.960938 13.28125 L 11.761719 11.839844 L 12.878906 10.71875 L 14.121094 10.800781 L 14.839844 11.359375 L 14.839844 12.078125 "/>
        <path style=" stroke:none;fill-rule:evenodd;fill:rgb(96.862745%,89.411765%,80.392157%);fill-opacity:1;"
              d="M 15.71875 9.078125 C 15.71875 9.078125 16.558594 4.878906 20.640625 4.078125 C 24 3.398438 25.800781 4.199219 26.441406 5 C 26.441406 5 23.441406 1.398438 20.601562 2.519531 C 17.761719 3.640625 15.640625 5.601562 15.679688 6.878906 C 15.738281 7.613281 15.753906 8.347656 15.71875 9.078125 "/>
        <path style=" stroke:none;fill-rule:evenodd;fill:rgb(96.862745%,89.411765%,80.392157%);fill-opacity:1;"
              d="M 26.800781 5.441406 C 26.800781 5.441406 25.398438 5.398438 25.359375 6.640625 C 25.363281 6.777344 25.390625 6.914062 25.441406 7.039062 C 25.441406 7.039062 26.558594 5.800781 27.238281 6.441406 "/>
        <path style=" stroke:none;fill-rule:evenodd;fill:rgb(96.862745%,89.411765%,80.392157%);fill-opacity:1;"
              d="M 20.71875 7.160156 C 20.71875 7.160156 20.519531 5.238281 18.878906 6.359375 C 17.238281 7.480469 17.921875 8.078125 18.121094 8.28125 C 18.320312 8.480469 18.238281 8.839844 18.398438 8.601562 C 18.558594 8.359375 18.480469 7.480469 19.039062 7.238281 C 19.601562 7 20.398438 6.71875 20.71875 7.160156 "/>
        <path style=" stroke:none;fill-rule:evenodd;fill:rgb(28.627451%,44.705882%,54.509804%);fill-opacity:1;"
              d="M 16.238281 20.039062 L 11.761719 22.039062 C 11.761719 22.039062 13.640625 29.441406 12.679688 31.71875 L 12 31.480469 L 12 28.679688 L 10.71875 23.320312 L 10.199219 21.839844 L 14.878906 18.71875 L 16.238281 20.039062 "/>
        <path style=" stroke:none;fill-rule:evenodd;fill:rgb(28.627451%,44.705882%,54.509804%);fill-opacity:1;"
              d="M 16.71875 24.121094 L 17.359375 24.921875 L 17.359375 27.761719 L 16.601562 27.761719 C 16.601562 27.761719 16.480469 25.761719 16.480469 25.519531 C 16.480469 25.28125 16.601562 24.441406 16.601562 24.441406 "/>
        <path style=" stroke:none;fill-rule:evenodd;fill:rgb(28.627451%,44.705882%,54.509804%);fill-opacity:1;"
              d="M 16.71875 28.199219 L 14.601562 28.28125 L 15.199219 28.71875 L 16.71875 28.960938 "/>
        <path style=" stroke:none;fill-rule:evenodd;fill:rgb(20%,31.372549%,38.039216%);fill-opacity:1;"
              d="M 24.078125 27.71875 L 25.839844 27.71875 L 26.28125 32.078125 L 24.441406 32.320312 L 24.078125 27.761719 "/>
        <path style=" stroke:none;fill-rule:evenodd;fill:rgb(20%,31.372549%,38.039216%);fill-opacity:1;"
              d="M 24.558594 27.71875 L 27.238281 27.558594 C 27.238281 27.558594 28.320312 24.800781 28.320312 24.679688 C 28.320312 24.558594 29.28125 20.679688 29.28125 20.679688 L 27.121094 18.441406 L 26.679688 18.039062 L 25.558594 19.199219 L 25.558594 23.601562 L 24.558594 27.71875 "/>
        <path style=" stroke:none;fill-rule:evenodd;fill:rgb(28.627451%,44.705882%,54.509804%);fill-opacity:1;"
              d="M 25.761719 27.398438 L 24.078125 27.71875 L 24.320312 29.039062 C 24.921875 29.320312 26 28.558594 26 28.558594 "/>
        <path style=" stroke:none;fill-rule:evenodd;fill:rgb(28.627451%,44.705882%,54.509804%);fill-opacity:1;"
              d="M 25.800781 19.039062 L 29.121094 21.519531 L 29.238281 20.359375 L 26.679688 18.039062 L 25.800781 19.039062 "/>
        <path style=" stroke:none;fill-rule:evenodd;fill:rgb(100%,100%,100%);fill-opacity:1;"
              d="M 18.398438 37.121094 L 17.398438 33.121094 L 16.921875 30.160156 L 16.839844 27.960938 L 21.28125 27.71875 L 24.078125 27.71875 L 23.839844 32.71875 L 24.238281 36.601562 L 24.238281 37.28125 L 20.640625 37.601562 L 18.398438 37.121094 "/>
        <path style=" stroke:none;fill-rule:evenodd;fill:rgb(86.27451%,85.098039%,84.705882%);fill-opacity:1;"
              d="M 23.441406 27.679688 C 23.441406 27.679688 23.199219 32.640625 23.921875 36.160156 C 22.84375 36.789062 21.640625 37.171875 20.398438 37.28125 L 24.398438 37.160156 L 24.878906 36.878906 L 24.320312 29.039062 L 24.160156 27.398438 "/>
        <path style=" stroke:none;fill-rule:evenodd;fill:rgb(100%,100%,100%);fill-opacity:1;"
              d="M 26.359375 31.679688 L 28.199219 31.160156 L 31.71875 30.960938 L 32.238281 29.320312 L 31.320312 26.519531 L 30.199219 26.398438 L 28.679688 26.878906 L 27.238281 27.558594 L 26.441406 27.441406 L 25.839844 27.679688 "/>
        <path style=" stroke:none;fill-rule:evenodd;fill:rgb(86.27451%,85.098039%,84.705882%);fill-opacity:1;"
              d="M 26.320312 30.71875 C 26.320312 30.71875 27.558594 30.160156 27.761719 30.199219 L 27.238281 27.558594 L 27.839844 27.320312 C 27.839844 27.320312 28.28125 29.800781 28.28125 30.121094 L 31.160156 30.238281 C 31.519531 29.550781 31.671875 28.773438 31.601562 28 L 32.121094 29.519531 L 32.121094 30.398438 L 31.359375 31.519531 L 30.519531 31.71875 L 29.121094 31.71875 L 28.640625 31.078125 L 27 31.320312 L 26.441406 31.519531 "/>
        <path style=" stroke:none;fill-rule:nonzero;fill:rgb(100%,100%,100%);fill-opacity:1;"
              d="M 24.441406 27.320312 L 23.398438 24.679688 L 22.28125 23.078125 C 22.28125 23.078125 22.519531 22.441406 22.878906 22.441406 L 23.960938 22.441406 L 25 22.800781 L 24.921875 24.558594 L 24.441406 27.320312 "/>
        <path style=" stroke:none;fill-rule:evenodd;fill:rgb(86.27451%,85.098039%,84.705882%);fill-opacity:1;"
              d="M 24.640625 26.441406 C 24.640625 26.441406 23.320312 23.839844 23.320312 23.480469 C 23.320312 23.121094 23.558594 22.921875 23.878906 23.039062 L 24.921875 23.558594 L 24.921875 22.679688 L 23.320312 22.320312 L 22.199219 22.480469 L 24.078125 26.878906 L 24.441406 26.878906 "/>
        <path style=" stroke:none;fill-rule:nonzero;fill:rgb(100%,100%,100%);fill-opacity:1;"
              d="M 18.800781 20.121094 L 17.480469 20 L 16.238281 19.601562 L 16.238281 20.039062 L 16.878906 20.71875 L 18.761719 21.558594 "/>
        <path style=" stroke:none;fill-rule:evenodd;fill:rgb(86.27451%,85.098039%,84.705882%);fill-opacity:1;"
              d="M 16.679688 20.28125 C 16.679688 20.28125 18.160156 20.921875 18.640625 20.761719 L 18.640625 21.320312 L 17.320312 21.039062 L 16.519531 20.480469 L 16.640625 20.28125 "/>
        <path style=" stroke:none;fill-rule:evenodd;fill:rgb(82.745098%,21.960784%,20%);fill-opacity:1;"
              d="M 26.359375 22.601562 C 25.617188 22.585938 24.875 22.480469 24.160156 22.28125 C 24.199219 22.039062 24.121094 21.761719 24.199219 21.601562 C 24.414062 21.464844 24.667969 21.40625 24.921875 21.441406 C 24.671875 21.320312 24.394531 21.277344 24.121094 21.320312 C 24.101562 21.164062 24.046875 21.011719 23.960938 20.878906 C 24.441406 20.71875 25.519531 19.679688 26.121094 20 C 26.71875 20.320312 26.519531 21.160156 26.519531 21.601562 C 26.582031 21.941406 26.527344 22.292969 26.359375 22.601562 "/>
        <path style="fill:none;stroke-width:0.71;stroke-linecap:butt;stroke-linejoin:miter;stroke:rgb(82.745098%,21.960784%,20%);stroke-opacity:1;stroke-miterlimit:5;"
              d="M 65.898438 56.503906 C 64.042969 56.464844 62.1875 56.201172 60.400391 55.703125 C 60.498047 55.097656 60.302734 54.404297 60.498047 54.003906 C 61.035156 53.662109 61.669922 53.515625 62.304688 53.603516 C 61.679688 53.300781 60.986328 53.193359 60.302734 53.300781 C 60.253906 52.910156 60.117188 52.529297 59.902344 52.197266 C 61.103516 51.796875 63.798828 49.199219 65.302734 50 C 66.796875 50.800781 66.298828 52.900391 66.298828 54.003906 C 66.455078 54.853516 66.318359 55.732422 65.898438 56.503906 Z M 65.898438 56.503906 "
              transform="matrix(0.4,0,0,0.4,0,0)"/>
        <path style=" stroke:none;fill-rule:evenodd;fill:rgb(82.745098%,21.960784%,20%);fill-opacity:1;"
              d="M 22.480469 21.28125 L 22.480469 21.441406 C 22.199219 21.601562 21.800781 21.601562 21.519531 21.761719 C 21.878906 21.761719 22.234375 21.84375 22.558594 22 C 22.527344 22.15625 22.511719 22.320312 22.519531 22.480469 C 22.039062 22.800781 21.640625 23.28125 21.078125 23.558594 C 20.519531 23.839844 19.921875 24.078125 19.640625 24 C 19.359375 23.921875 19.480469 23.761719 19.441406 23.601562 C 19.199219 23.09375 19.035156 22.554688 18.960938 22 C 18.921875 21.238281 18.839844 20 19.640625 20.160156 C 20.300781 20.300781 20.933594 20.542969 21.519531 20.878906 C 21.800781 21.089844 22.132812 21.226562 22.480469 21.28125 "/>
        <path style="fill:none;stroke-width:0.71;stroke-linecap:butt;stroke-linejoin:miter;stroke:rgb(82.745098%,21.960784%,20%);stroke-opacity:1;stroke-miterlimit:5;"
              d="M 56.201172 53.203125 L 56.201172 53.603516 C 55.498047 54.003906 54.501953 54.003906 53.798828 54.404297 C 54.697266 54.404297 55.585938 54.609375 56.396484 55 C 56.318359 55.390625 56.279297 55.800781 56.298828 56.201172 C 55.097656 57.001953 54.101562 58.203125 52.695312 58.896484 C 51.298828 59.599609 49.804688 60.195312 49.101562 60 C 48.398438 59.804688 48.701172 59.404297 48.603516 59.003906 C 47.998047 57.734375 47.587891 56.386719 47.402344 55 C 47.304688 53.095703 47.099609 50 49.101562 50.400391 C 50.751953 50.751953 52.333984 51.357422 53.798828 52.197266 C 54.501953 52.724609 55.332031 53.066406 56.201172 53.203125 Z M 56.201172 53.203125 "
              transform="matrix(0.4,0,0,0.4,0,0)"/>
        <path style=" stroke:none;fill-rule:evenodd;fill:rgb(82.745098%,21.960784%,20%);fill-opacity:1;"
              d="M 22.921875 22.160156 C 22.863281 21.871094 22.824219 21.574219 22.800781 21.28125 C 23.878906 20.558594 24.078125 22.519531 22.921875 22.160156 "/>
        <path style="fill:none;stroke-width:0.71;stroke-linecap:butt;stroke-linejoin:miter;stroke:rgb(82.745098%,21.960784%,20%);stroke-opacity:1;stroke-miterlimit:5;"
              d="M 57.304688 55.400391 C 57.158203 54.677734 57.060547 53.935547 57.001953 53.203125 C 59.697266 51.396484 60.195312 56.298828 57.304688 55.400391 Z M 57.304688 55.400391 "
              transform="matrix(0.4,0,0,0.4,0,0)"/>
        <path style=" stroke:none;fill-rule:evenodd;fill:rgb(93.72549%,23.921569%,22.745098%);fill-opacity:1;"
              d="M 24.480469 22.480469 C 24.480469 22.480469 24.160156 22 24.398438 21.839844 C 24.640625 21.679688 24.878906 21.839844 25 21.601562 C 25.121094 21.359375 25 21.238281 25.078125 20.960938 C 25.160156 20.679688 25.359375 20.601562 25.601562 20.558594 C 25.839844 20.519531 26.480469 20.441406 26.601562 20.679688 L 26.320312 19.800781 L 25.71875 19.601562 L 23.921875 20.679688 L 23.839844 21.199219 L 23.839844 22.238281 "/>
        <path style=" stroke:none;fill-rule:evenodd;fill:rgb(93.72549%,23.921569%,22.745098%);fill-opacity:1;"
              d="M 19.480469 24.039062 C 19.441406 23.320312 19.359375 22.558594 19.28125 21.800781 C 19.199219 21.039062 19.558594 20.921875 20.519531 20.921875 C 20.679688 20.921875 21.441406 21.078125 21.480469 21.199219 C 21.519531 21.320312 21.039062 21.601562 21.800781 22 C 22.558594 22.398438 23.519531 21.800781 23.238281 21.039062 C 23.121094 20.878906 22.519531 21 22.320312 20.878906 L 21.199219 20.320312 C 20.71875 20.039062 19.640625 19.71875 19.121094 20.039062 C 17.839844 20.921875 19.199219 23.078125 19.640625 24 "/>
        <path style=" stroke:none;fill-rule:evenodd;fill:rgb(13.72549%,12.156863%,12.54902%);fill-opacity:1;"
              d="M 20.71875 7.160156 C 19.441406 6.839844 18.800781 7.71875 18.398438 8.601562 C 18.039062 8.480469 18.199219 8 18.28125 7.761719 C 18.359375 7.519531 19.441406 6.28125 20.199219 6.398438 C 20.960938 6.519531 21 6.761719 20.71875 7.160156 "/>
        <path style=" stroke:none;fill-rule:evenodd;fill:rgb(13.72549%,12.156863%,12.54902%);fill-opacity:1;"
              d="M 27.078125 8.640625 L 27.121094 8.640625 C 27.441406 9.238281 27.679688 9.878906 28.039062 10.441406 C 28.398438 11 26.160156 11.519531 26.199219 10.480469 C 26.558594 10.320312 27.160156 10.441406 27.480469 10.238281 C 27.207031 9.75 27.070312 9.199219 27.078125 8.640625 "/>
        <path style=" stroke:none;fill-rule:evenodd;fill:rgb(13.72549%,12.156863%,12.54902%);fill-opacity:1;"
              d="M 21.398438 8.640625 C 21.679688 9.160156 21.761719 9.71875 22.160156 10.078125 C 22.558594 10.441406 22.679688 10.480469 22.519531 10.960938 C 22.402344 11.152344 22.214844 11.296875 22 11.359375 C 21.398438 11.558594 19.960938 11.398438 20.441406 10.640625 C 20.960938 10.679688 21.640625 10.960938 22.039062 10.601562 C 21.71875 10.121094 21.199219 9.199219 21.398438 8.640625 "/>
        <path style=" stroke:none;fill-rule:evenodd;fill:rgb(13.72549%,12.156863%,12.54902%);fill-opacity:1;"
              d="M 26.839844 13.839844 C 25.921875 14.441406 24.878906 15.078125 23.320312 14.960938 C 22.960938 14.59375 22.910156 14.023438 23.199219 13.601562 C 23.359375 13.878906 23.28125 14.398438 23.71875 14.480469 C 24.160156 14.558594 25.601562 13.960938 26.238281 13.71875 C 26.878906 13.480469 26.199219 12.839844 25.839844 12.398438 C 25.480469 11.960938 24.160156 10.480469 24.199219 9.199219 C 24.480469 9 24.519531 9.519531 24.558594 9.640625 C 24.921875 10.480469 25.878906 11.601562 26.558594 12.359375 C 27.238281 13.121094 27 12.71875 27.039062 12.839844 C 27.078125 12.960938 26.800781 13.601562 26.839844 13.839844 "/>
        <path style=" stroke:none;fill-rule:evenodd;fill:rgb(13.72549%,12.156863%,12.54902%);fill-opacity:1;"
              d="M 14.558594 13.199219 C 14.238281 13.039062 14.199219 12.320312 13.839844 12.28125 C 13.480469 12.238281 13.441406 13.238281 13.441406 13.839844 C 13.121094 13.519531 13.039062 12.558594 13.28125 12.078125 C 13.519531 11.601562 12.878906 12.238281 12.71875 12.359375 C 12.921875 10.878906 14.878906 11.679688 14.558594 13.199219 "/>
        <path style=" stroke:none;fill-rule:evenodd;fill:rgb(13.72549%,12.156863%,12.54902%);fill-opacity:1;"
              d="M 27.441406 14.441406 C 27 15.28125 26.398438 16.199219 25.121094 16.199219 C 25.078125 15.933594 25.078125 15.664062 25.121094 15.398438 C 26.078125 15.28125 26.679688 14.800781 27.441406 14.441406 "/>
        <path style=" stroke:none;fill-rule:evenodd;fill:rgb(13.72549%,12.156863%,12.54902%);fill-opacity:1;"
              d="M 21.320312 15 C 22.160156 15.398438 23.640625 15.480469 24.71875 15.441406 C 24.789062 15.714844 24.816406 15.996094 24.800781 16.28125 C 23.398438 16.320312 21.71875 16 21.320312 15 "/>
        <path style=" stroke:none;fill-rule:evenodd;fill:rgb(13.72549%,12.156863%,12.54902%);fill-opacity:1;"
              d="M 21.160156 15.800781 C 21.71875 17.199219 23.679688 17.039062 25.28125 17 C 25.222656 17.210938 25.074219 17.382812 24.878906 17.480469 C 24.359375 17.679688 22.921875 17.839844 22.199219 17.480469 C 21.792969 17.179688 21.453125 16.796875 21.199219 16.359375 C 21.078125 16.199219 20.441406 15.800781 21.160156 15.800781 "/>
        <path style=" stroke:none;fill-rule:evenodd;fill:rgb(50.588235%,69.019608%,76.862745%);fill-opacity:1;"
              d="M 26.761719 23.558594 C 26.152344 24.707031 25.457031 25.800781 24.679688 26.839844 C 25.039062 25.878906 25.160156 24.28125 25.199219 23.039062 C 25.777344 22.773438 26.460938 23 26.761719 23.558594 "/>
        <path style=" stroke:none;fill-rule:evenodd;fill:rgb(13.72549%,12.156863%,12.54902%);fill-opacity:1;"
              d="M 30.320312 27.601562 C 29.558594 27.761719 29.039062 28.480469 28.320312 28.441406 C 28.71875 27.878906 29.441406 27.640625 30.320312 27.601562 "/>
        <path style=" stroke:none;fill-rule:evenodd;fill:rgb(13.72549%,12.156863%,12.54902%);fill-opacity:1;"
              d="M 30.640625 28.761719 C 30.003906 28.859375 29.363281 28.898438 28.71875 28.878906 C 29 28.441406 30.121094 28.601562 30.640625 28.761719 "/>
        <path style=" stroke:none;fill-rule:evenodd;fill:rgb(13.72549%,12.156863%,12.54902%);fill-opacity:1;"
              d="M 30.839844 29.761719 C 30.121094 29.785156 29.398438 29.773438 28.679688 29.71875 C 29.078125 29.320312 30.398438 29.558594 30.839844 29.761719 "/>
        <path style=" stroke:none;fill-rule:evenodd;fill:rgb(86.27451%,85.098039%,84.705882%);fill-opacity:1;"
              d="M 25.480469 32.480469 C 25.601562 33.359375 25.921875 34.199219 25.878906 35.121094 C 25.539062 35.273438 25.171875 35.355469 24.800781 35.359375 C 24.761719 34.558594 24.640625 33.359375 24.679688 32.601562 C 24.921875 32.640625 25.320312 32.441406 25.480469 32.480469 "/>
        <path style=" stroke:none;fill-rule:evenodd;fill:rgb(94.117647%,83.921569%,71.764706%);fill-opacity:1;"
              d="M 24.398438 20 L 23.441406 20.71875 C 22.847656 20.820312 22.246094 20.640625 21.800781 20.238281 C 21.800781 20.238281 21.878906 20.238281 21.878906 20.199219 C 22.640625 20.519531 23.640625 20.039062 24.398438 20 "/>
        <path style=" stroke:none;fill-rule:evenodd;fill:rgb(50.588235%,69.019608%,76.862745%);fill-opacity:1;"
              d="M 20.359375 25.238281 C 20.558594 24.320312 21.398438 23.878906 22.160156 23.359375 C 22.921875 24.359375 23.398438 25.601562 23.921875 26.839844 C 22.671875 26.457031 21.476562 25.917969 20.359375 25.238281 "/>
        <path style=" stroke:none;fill-rule:evenodd;fill:rgb(13.72549%,12.156863%,12.54902%);fill-opacity:1;"
              d="M 24.679688 32.601562 C 24.640625 33.359375 24.761719 34.558594 24.800781 35.359375 C 25.171875 35.355469 25.539062 35.273438 25.878906 35.121094 C 25.921875 34.199219 25.601562 33.359375 25.480469 32.480469 C 25.320312 32.441406 24.921875 32.640625 24.679688 32.601562 Z M 16.878906 28.320312 C 17.167969 31.132812 17.742188 33.90625 18.601562 36.601562 C 20.550781 37.199219 22.628906 37.238281 24.601562 36.71875 C 24.28125 35.199219 24.398438 33.359375 24.238281 31.71875 C 24.078125 30.078125 24.160156 29.28125 23.960938 28.039062 C 21.878906 27.601562 18.960938 27.960938 16.878906 28.320312 Z M 24.480469 28.078125 C 24.453125 29.375 24.507812 30.671875 24.640625 31.960938 L 25.921875 31.71875 C 25.761719 30.480469 25.800781 29.078125 25.480469 27.960938 C 25.140625 27.9375 24.804688 27.980469 24.480469 28.078125 Z M 27 27.878906 C 26.761719 27.820312 26.515625 27.820312 26.28125 27.878906 C 26.359375 28.921875 26.640625 30.078125 26.71875 31.199219 C 27.078125 31.238281 27.28125 31.039062 27.558594 31 C 27.558594 30.039062 27.480469 28.679688 27 27.878906 Z M 30.839844 31.359375 C 31.601562 31.199219 32.078125 30.28125 31.839844 29.359375 C 31.601562 28.441406 31.480469 27.519531 31.199219 27.121094 C 30.921875 26.71875 30.480469 26.441406 30.039062 26.71875 C 29.601562 27 28.121094 27.28125 27.640625 27.839844 C 27.863281 28.839844 28 29.855469 28.039062 30.878906 C 28.921875 30.960938 30 30.640625 30.71875 30.960938 C 30.199219 31.121094 29.558594 31.121094 29.121094 31.359375 C 29.683594 31.519531 30.277344 31.519531 30.839844 31.359375 Z M 23.921875 26.839844 C 23.398438 25.601562 22.921875 24.359375 22.160156 23.359375 C 21.398438 23.878906 20.558594 24.320312 20.359375 25.238281 C 21.476562 25.917969 22.671875 26.457031 23.921875 26.839844 Z M 25.199219 23.039062 C 25.160156 24.28125 25.039062 25.878906 24.679688 26.839844 C 25.457031 25.800781 26.152344 24.707031 26.761719 23.558594 C 26.460938 23 25.777344 22.773438 25.199219 23.039062 Z M 23.761719 22.519531 C 23.441406 22.480469 23.199219 22.878906 22.839844 22.71875 C 22.738281 22.804688 22.644531 22.898438 22.558594 23 C 23.398438 24.039062 23.800781 25.480469 24.441406 26.679688 C 24.800781 25.519531 24.761719 24.238281 24.839844 23 C 24.359375 23.039062 24.078125 22.558594 23.761719 22.519531 Z M 22.800781 21.28125 C 22.824219 21.574219 22.863281 21.871094 22.921875 22.160156 C 24.078125 22.519531 23.878906 20.558594 22.800781 21.28125 Z M 21.519531 20.878906 C 20.933594 20.542969 20.300781 20.300781 19.640625 20.160156 C 18.839844 20 18.921875 21.238281 18.960938 22 C 19.035156 22.554688 19.199219 23.09375 19.441406 23.601562 C 19.480469 23.761719 19.519531 23.960938 19.640625 24 C 19.761719 24.039062 20.839844 23.679688 21.078125 23.558594 C 21.320312 23.441406 22.039062 22.800781 22.519531 22.480469 C 22.511719 22.320312 22.527344 22.15625 22.558594 22 C 22.234375 21.84375 21.878906 21.761719 21.519531 21.761719 C 21.800781 21.601562 22.199219 21.601562 22.480469 21.441406 L 22.480469 21.28125 C 22.132812 21.226562 21.800781 21.089844 21.519531 20.878906 Z M 16.800781 20 C 16.359375 20.398438 17.960938 21 18.441406 21 C 18.921875 21 18.601562 20.519531 18.558594 20.320312 C 18.519531 20.121094 17.199219 20.28125 16.800781 20 Z M 21.878906 20.199219 C 21.878906 20.238281 21.800781 20.238281 21.800781 20.238281 C 22.246094 20.640625 22.847656 20.820312 23.441406 20.71875 L 24.398438 20 C 23.640625 20.039062 22.640625 20.519531 21.878906 20.199219 Z M 26.519531 21.601562 C 26.519531 21.160156 26.398438 20.199219 26.121094 20 C 25.839844 19.800781 24.441406 20.71875 23.960938 20.878906 C 24.046875 21.011719 24.101562 21.164062 24.121094 21.320312 C 24.394531 21.277344 24.671875 21.320312 24.921875 21.441406 C 24.667969 21.40625 24.414062 21.464844 24.199219 21.601562 C 24.121094 21.761719 24.199219 22.039062 24.160156 22.28125 C 24.875 22.480469 25.617188 22.585938 26.359375 22.601562 C 26.527344 22.292969 26.582031 21.941406 26.519531 21.601562 Z M 16.078125 20.398438 C 15.960938 20.320312 15.078125 19.160156 14.960938 19.199219 C 13.371094 19.910156 11.890625 20.835938 10.558594 21.960938 C 11.839844 24.679688 12.359375 28 12.441406 31.199219 C 13.878906 31.878906 15.160156 32.839844 17.121094 32.921875 C 16.878906 31.320312 16.679688 29.878906 16.558594 28.398438 C 16.078125 28.160156 15.359375 28.398438 14.878906 28.320312 C 14.398438 28.238281 15.601562 28.078125 15.640625 27.679688 C 15.679688 27.28125 15.28125 27.398438 15.398438 26.960938 C 15.519531 26.519531 15.960938 27.359375 16.359375 27.480469 C 16.679688 26.71875 16.320312 25.359375 16.398438 24.71875 C 16.480469 24.078125 16.441406 24.039062 16.71875 24.121094 C 17 24.199219 16.71875 25.601562 16.71875 26.199219 C 16.71875 26.800781 16.679688 27.320312 16.878906 27.640625 C 18.800781 27.398438 20.71875 27.238281 22.761719 27.160156 C 22.320312 26.960938 21.800781 26.800781 21.199219 26.480469 C 20.601562 26.160156 19.878906 25.921875 19.761719 25.601562 C 19.640625 25.28125 20.160156 24.878906 20.238281 24.441406 C 19.28125 24.960938 19.121094 23.960938 18.878906 23.238281 C 18.71875 22.742188 18.597656 22.234375 18.519531 21.71875 C 17.667969 21.351562 16.851562 20.910156 16.078125 20.398438 Z M 25.679688 19.359375 C 27 18.71875 27.238281 21.761719 26.71875 22.71875 C 26.800781 23.039062 27.078125 23.121094 27.199219 23.398438 C 26.480469 24.71875 25.640625 25.960938 24.878906 27.238281 C 25.441406 26.921875 26.238281 27.199219 26.921875 26.921875 C 27.601562 26.640625 27.320312 26.28125 27.519531 25.839844 C 28.054688 24.589844 28.46875 23.289062 28.761719 21.960938 C 28.863281 21.605469 28.929688 21.246094 28.960938 20.878906 C 28.878906 20.441406 28.320312 20.121094 28.039062 19.878906 C 27.761719 19.640625 27.160156 18.960938 26.601562 18.519531 C 26.359375 18.878906 25.878906 19.078125 25.679688 19.359375 Z M 13.078125 7.640625 C 12.441406 8.320312 12.558594 9.640625 12.640625 10.558594 C 13.800781 9.839844 15.28125 10.601562 15.28125 11.839844 C 15.839844 11.800781 15.480469 11.160156 15.398438 10.71875 C 15.078125 9.320312 15.921875 7.800781 15.441406 6.519531 C 14.535156 6.5625 13.6875 6.96875 13.078125 7.640625 Z M 17.558594 3.601562 C 16.160156 4 14.320312 5.039062 13.71875 6.320312 C 14.199219 6.28125 14.519531 6.039062 14.960938 6 C 15.144531 6.03125 15.332031 6.046875 15.519531 6.039062 C 15.921875 5.921875 16.238281 5.078125 16.558594 4.761719 C 16.878906 4.441406 17.160156 4.28125 17.398438 4 C 17.640625 3.71875 17.761719 3.921875 17.800781 3.71875 C 17.738281 3.652344 17.652344 3.609375 17.558594 3.601562 Z M 25 4 C 23.519531 3.160156 21 2.519531 19.441406 3.320312 C 17.878906 4.121094 16.441406 5 15.878906 6.320312 C 16.398438 7.601562 15.71875 8.761719 15.640625 10.078125 C 15.640625 10.761719 16 11.359375 16 12.121094 C 16 12.878906 15.238281 12.480469 14.839844 12.441406 C 14.71875 11.800781 14.480469 11.039062 13.800781 10.960938 C 13.363281 10.925781 12.929688 11.074219 12.605469 11.371094 C 12.28125 11.664062 12.089844 12.082031 12.078125 12.519531 C 12.039062 13.480469 12.839844 15.121094 14 15 C 14.441406 14.960938 14.519531 14.519531 15.039062 14.519531 C 15.558594 14.519531 14.601562 15.199219 14.558594 15.601562 C 14.550781 15.816406 14.578125 16.03125 14.640625 16.238281 C 14.863281 17.183594 15.253906 18.078125 15.800781 18.878906 C 16.359375 19.71875 17.519531 19.839844 18.71875 19.921875 C 18.960938 19.441406 19.761719 19.480469 20.28125 19.601562 C 19.617188 19.273438 19.039062 18.792969 18.601562 18.199219 C 18.039062 17.601562 17.441406 16.921875 17.441406 16.121094 C 18.480469 17.601562 19.359375 18.878906 21.28125 19.519531 C 23.199219 20.160156 24.441406 19.320312 25.558594 18.519531 C 25.980469 18.144531 26.332031 17.695312 26.601562 17.199219 C 27.839844 15.441406 28.441406 12.878906 28.28125 10.441406 C 28.238281 9.441406 28.238281 8.441406 27.921875 7.761719 C 27.601562 7.078125 26.359375 6.398438 25.640625 7.039062 C 25.519531 6.359375 26.238281 5.921875 27.078125 6.160156 C 26.480469 5.398438 25.839844 4.480469 25 4 Z M 27.761719 26.800781 C 28.921875 26.238281 31.078125 25.28125 31.800781 26.800781 C 32.085938 27.488281 32.328125 28.199219 32.519531 28.921875 C 32.71875 29.761719 32.320312 31.519531 31.441406 31.800781 C 30.617188 32.035156 29.75 32.046875 28.921875 31.839844 C 28.78125 31.734375 28.671875 31.597656 28.601562 31.441406 C 27.996094 31.375 27.382812 31.484375 26.839844 31.761719 C 26.878906 32.238281 26.558594 32.28125 26.238281 32.398438 C 26 33.28125 26.679688 34.480469 26.519531 35.28125 C 26.359375 36.078125 25.71875 35.960938 25.160156 36.039062 C 25.164062 36.335938 25.191406 36.628906 25.238281 36.921875 C 25.121094 37.359375 24.558594 37.640625 24.078125 37.679688 C 22.398438 37.878906 19.839844 37.960938 18.199219 37.398438 C 17.761719 36.28125 17.398438 34.960938 17.039062 33.679688 C 15.441406 33.839844 14.160156 33 12.960938 32.441406 C 12.558594 32.238281 11.960938 32.160156 11.839844 31.800781 C 11.71875 31.441406 11.71875 30.878906 11.679688 30.28125 C 11.648438 28.785156 11.460938 27.296875 11.121094 25.839844 C 10.960938 25.160156 10.640625 24.558594 10.441406 23.921875 C 10.171875 23.285156 9.957031 22.628906 9.800781 21.960938 C 9.679688 21.039062 10.519531 21 11.039062 20.601562 C 11.558594 20.199219 12.558594 19.679688 13.441406 19.121094 C 13.71875 18.960938 14.519531 18.558594 14.640625 18.359375 C 14.761719 18.160156 14.320312 17.480469 14.160156 17.199219 C 13.964844 16.785156 13.855469 16.335938 13.839844 15.878906 C 13.15625 15.761719 12.550781 15.371094 12.160156 14.800781 C 11.558594 13.960938 11.160156 12.359375 11.679688 11.199219 C 11.71875 11.078125 11.921875 10.921875 11.921875 10.761719 C 11.9375 10.433594 11.894531 10.109375 11.800781 9.800781 C 11.761719 8.28125 12.078125 6.921875 13.121094 6.480469 C 13.519531 4.800781 15.039062 4.238281 16.480469 3.398438 C 17.03125 3.097656 17.605469 2.84375 18.199219 2.640625 C 20.359375 1.839844 23.71875 2 25.519531 3.359375 C 26.28125 3.960938 27.519531 5.160156 27.960938 6.039062 C 29.078125 8.398438 29 12.28125 28.199219 15.121094 C 28.089844 15.601562 27.925781 16.070312 27.71875 16.519531 C 27.558594 16.839844 27.078125 17.480469 27.160156 17.761719 C 27.238281 18.039062 28.238281 18.839844 28.441406 19.078125 C 28.640625 19.320312 29.601562 19.960938 29.679688 20.441406 C 29.644531 21.03125 29.507812 21.613281 29.28125 22.160156 C 28.800781 23.800781 28.320312 25.320312 27.761719 26.800781 "/>
        <path style=" stroke:none;fill-rule:evenodd;fill:rgb(96.862745%,89.411765%,80.392157%);fill-opacity:1;"
              d="M 20.039062 15.359375 C 20.3125 15.203125 20.648438 15.203125 20.921875 15.359375 C 20.921875 15.359375 20.359375 15.480469 20.398438 16.441406 L 20.160156 16.359375 C 20.160156 16.359375 19.921875 15.519531 20.039062 15.359375 "/>
        <path style=" stroke:none;fill-rule:evenodd;fill:rgb(11.372549%,9.803922%,9.803922%);fill-opacity:1;"
              d="M 24.199219 23.558594 C 24.199219 23.691406 24.09375 23.800781 23.960938 23.800781 C 23.820312 23.800781 23.699219 23.699219 23.679688 23.558594 C 23.679688 23.40625 23.804688 23.28125 23.960938 23.28125 C 24.121094 23.28125 24.199219 23.398438 24.199219 23.558594 "/>
        <path style=" stroke:none;fill-rule:evenodd;fill:rgb(11.372549%,9.803922%,9.803922%);fill-opacity:1;"
              d="M 24.480469 24.761719 C 24.480469 24.914062 24.355469 25.039062 24.199219 25.039062 C 24.0625 25.019531 23.957031 24.898438 23.960938 24.761719 C 23.960938 24.628906 24.066406 24.519531 24.199219 24.519531 C 24.359375 24.519531 24.480469 24.601562 24.480469 24.761719 "/>
    </g>
</svg>
