<?xml version="1.0" encoding="UTF-8"?>
<svg xmlns="http://www.w3.org/2000/svg" width="36pt" height="36pt" viewBox="0 0 36 36" version="1.1">
    <defs>
        <linearGradient id="linear0" gradientUnits="userSpaceOnUse" x1="-353.22" y1="47" x2="-362.23" y2="38"
                        gradientTransform="matrix(0.617222,0,0,-0.617222,233.767551,38.207467)">
            <stop offset="0" style="stop-color:rgb(0%,32.156863%,80%);stop-opacity:1;"/>
            <stop offset="1" style="stop-color:rgb(14.901961%,51.764706%,100%);stop-opacity:1;"/>
        </linearGradient>
        <linearGradient id="linear1" gradientUnits="userSpaceOnUse" x1="-346.36" y1="19.39" x2="-337.37" y2="28.38"
                        gradientTransform="matrix(0.617222,0,0,-0.617222,233.767551,38.207467)">
            <stop offset="0" style="stop-color:rgb(0%,32.156863%,80%);stop-opacity:1;"/>
            <stop offset="1" style="stop-color:rgb(14.901961%,51.764706%,100%);stop-opacity:1;"/>
        </linearGradient>
    </defs>
    <g id="surface1">
        <path style=" stroke:none;fill-rule:nonzero;fill:rgb(14.901961%,51.764706%,100%);fill-opacity:1;"
              d="M 33.238281 16.816406 L 19.117188 2.660156 L 17.734375 1.3125 L 2.234375 16.816406 C 1.984375 17.054688 1.839844 17.386719 1.839844 17.734375 C 1.839844 18.085938 1.984375 18.417969 2.234375 18.660156 L 11.957031 28.378906 L 17.734375 34.160156 L 33.238281 18.660156 C 33.488281 18.417969 33.632812 18.085938 33.632812 17.734375 C 33.632812 17.386719 33.488281 17.054688 33.238281 16.816406 Z M 17.734375 22.59375 L 12.875 17.734375 L 17.734375 12.875 L 22.59375 17.734375 Z M 17.734375 22.59375 "/>
        <path style=" stroke:none;fill-rule:nonzero;fill:url(#linear0);"
              d="M 17.734375 12.875 C 14.546875 9.703125 14.53125 4.542969 17.699219 1.347656 L 7.058594 11.957031 L 12.839844 17.773438 Z M 17.734375 12.875 "/>
        <path style=" stroke:none;fill-rule:nonzero;fill:url(#linear1);"
              d="M 22.59375 17.734375 L 17.734375 22.59375 C 19.285156 24.125 20.152344 26.203125 20.152344 28.378906 C 20.152344 30.550781 19.285156 32.632812 17.734375 34.160156 L 28.378906 23.519531 Z M 22.59375 17.734375 "/>
    </g>
</svg>
