<?xml version="1.0" encoding="UTF-8"?>
<svg xmlns="http://www.w3.org/2000/svg" width="40pt" height="40pt" viewBox="0 0 40 40" version="1.1">
    <g id="surface1">
        <path style="fill-rule:evenodd;fill:rgb(68.627451%,68.627451%,87.058824%);fill-opacity:1;stroke-width:0.87;stroke-linecap:butt;stroke-linejoin:round;stroke:rgb(0%,0%,0%);stroke-opacity:1;stroke-miterlimit:4;"
              d="M 12.900391 58.300781 L 43.398438 87.304688 L 88.496094 66.201172 L 49.804688 48.095703 Z M 12.900391 58.300781 "
              transform="matrix(0.4,0,0,0.4,0,0)"/>
        <path style="fill-rule:evenodd;fill:rgb(20.784314%,20.784314%,39.215686%);fill-opacity:1;stroke-width:0.87;stroke-linecap:butt;stroke-linejoin:round;stroke:rgb(0%,0%,0%);stroke-opacity:1;stroke-miterlimit:4;"
              d="M 11.503906 18.496094 L 12.900391 58.300781 L 49.804688 48.095703 L 48.603516 14.697266 Z M 11.503906 18.496094 "
              transform="matrix(0.4,0,0,0.4,0,0)"/>
        <path style="fill-rule:evenodd;fill:rgb(91.372549%,91.372549%,100%);fill-opacity:1;stroke-width:0.87;stroke-linecap:butt;stroke-linejoin:round;stroke:rgb(0%,0%,0%);stroke-opacity:1;stroke-miterlimit:4;"
              d="M 48.603516 14.697266 L 86.904297 19.101562 L 88.496094 66.201172 L 49.804688 48.095703 Z M 48.603516 14.697266 "
              transform="matrix(0.4,0,0,0.4,0,0)"/>
        <path style="fill-rule:evenodd;fill:rgb(9.803922%,68.235294%,100%);fill-opacity:1;stroke-width:0.87;stroke-linecap:butt;stroke-linejoin:round;stroke:rgb(0%,0%,0%);stroke-opacity:1;stroke-miterlimit:4;"
              d="M 11.503906 18.496094 L 41.201172 26.201172 L 86.904297 19.101562 L 48.603516 14.697266 Z M 11.503906 18.496094 "
              transform="matrix(0.4,0,0,0.4,0,0)"/>
        <path style="fill-rule:evenodd;fill:rgb(0%,51.764706%,78.431373%);fill-opacity:1;stroke-width:0.87;stroke-linecap:butt;stroke-linejoin:round;stroke:rgb(0%,0%,0%);stroke-opacity:1;stroke-miterlimit:4;"
              d="M 41.201172 26.201172 L 43.398438 87.304688 L 88.496094 66.201172 L 86.904297 19.101562 Z M 41.201172 26.201172 "
              transform="matrix(0.4,0,0,0.4,0,0)"/>
        <path style="fill-rule:evenodd;fill:rgb(9.803922%,68.235294%,100%);fill-opacity:1;stroke-width:0.87;stroke-linecap:butt;stroke-linejoin:round;stroke:rgb(0%,0%,0%);stroke-opacity:1;stroke-miterlimit:4;"
              d="M 11.503906 18.496094 L 41.201172 26.201172 L 43.398438 87.304688 L 12.900391 58.300781 Z M 11.503906 18.496094 "
              transform="matrix(0.4,0,0,0.4,0,0)"/>
        <path style="fill:none;stroke-width:1.31;stroke-linecap:butt;stroke-linejoin:miter;stroke:rgb(0%,0%,0%);stroke-opacity:1;stroke-miterlimit:5.58;"
              d="M 14.501953 30.195312 C 14.501953 30.195312 18.398438 22.197266 26.396484 30.400391 C 30.195312 34.404297 32.998047 38.896484 36.601562 32.900391 "
              transform="matrix(0.4,0,0,0.4,0,0)"/>
        <path style="fill:none;stroke-width:1.31;stroke-linecap:butt;stroke-linejoin:miter;stroke:rgb(0%,0%,0%);stroke-opacity:1;stroke-miterlimit:5.58;"
              d="M 14.501953 35.498047 C 14.501953 35.498047 18.398438 27.5 26.396484 35.703125 C 30.195312 39.697266 32.998047 44.101562 36.601562 38.203125 "
              transform="matrix(0.4,0,0,0.4,0,0)"/>
        <path style="fill:none;stroke-width:1.31;stroke-linecap:butt;stroke-linejoin:miter;stroke:rgb(0%,0%,0%);stroke-opacity:1;stroke-miterlimit:5.58;"
              d="M 14.501953 40.703125 C 14.501953 40.703125 18.398438 32.695312 26.396484 40.898438 C 30.195312 44.902344 32.998047 49.296875 36.601562 43.398438 "
              transform="matrix(0.4,0,0,0.4,0,0)"/>
    </g>
</svg>
